<?xml version="1.0" standalone="no"?>
<!DOCTYPE svg PUBLIC "-//W3C//DTD SVG 20010904//EN"
 "http://www.w3.org/TR/2001/REC-SVG-20010904/DTD/svg10.dtd">
<svg version="1.0" xmlns="http://www.w3.org/2000/svg"
 width="676.000000pt" height="659.000000pt" viewBox="0 0 676.000000 659.000000"
 preserveAspectRatio="xMidYMid meet">

<g transform="translate(0.000000,659.000000) scale(0.100000,-0.100000)"
fill="#000000" stroke="none">
<path d="M3205 6494 c-16 -2 -88 -9 -158 -15 -85 -8 -127 -15 -124 -23 2 -6
57 -39 123 -73 l120 -62 299 -4 c315 -5 397 -13 623 -63 460 -102 904 -311
1265 -596 244 -192 535 -522 688 -779 210 -352 327 -689 396 -1139 28 -181 25
-676 -5 -862 -76 -480 -268 -934 -560 -1326 -125 -167 -393 -435 -557 -557
-251 -187 -513 -328 -795 -429 -351 -126 -647 -182 -1021 -193 -434 -14 -915
82 -1305 258 l-114 52 -67 -16 c-38 -9 -117 -25 -178 -37 -142 -28 -186 -41
-182 -54 6 -20 401 -211 547 -265 406 -148 772 -213 1210 -213 251 0 413 14
645 57 759 140 1454 534 1943 1100 98 114 259 334 307 420 16 28 34 57 41 65
22 27 139 262 186 375 88 212 163 479 204 732 19 118 31 658 15 633 -8 -11
-10 -2 -10 35 1 44 2 46 9 20 l8 -30 0 30 c1 50 -25 223 -27 185 -2 -20 -13
23 -26 101 -54 311 -118 535 -213 747 -371 826 -1127 1486 -2025 1768 -213 67
-410 109 -647 139 -116 15 -547 28 -615 19z m3532 -2886 c-2 -13 -4 -3 -4 22
0 25 2 35 4 23 2 -13 2 -33 0 -45z m-20 -790 c-3 -8 -6 -5 -6 6 -1 11 2 17 5
13 3 -3 4 -12 1 -19z"/>
<path d="M1812 6110 c-323 -170 -574 -353 -821 -600 -217 -216 -415 -476 -508
-668 -30 -62 -59 -110 -64 -107 -5 3 -6 -2 -2 -11 5 -13 3 -15 -7 -9 -9 5 -11
4 -6 -4 4 -6 2 -28 -5 -49 -20 -59 -11 -132 47 -392 26 -113 41 -157 51 -147
2 3 26 70 53 149 77 231 169 416 331 671 110 171 209 296 353 445 200 206 406
372 627 503 114 68 348 186 422 214 26 10 46 19 44 21 -6 6 -318 54 -350 54
-20 0 -82 -26 -165 -70z"/>
<path d="M3126 6079 c-206 -18 -379 -60 -676 -163 -138 -47 -371 -155 -462
-213 -291 -184 -390 -262 -595 -469 -153 -154 -227 -242 -300 -358 -183 -291
-259 -450 -349 -725 -49 -149 -50 -155 -72 -266 -73 -369 -76 -580 -16 -945
27 -163 95 -419 135 -505 5 -11 22 -59 39 -107 16 -48 43 -111 59 -140 74
-136 96 -174 140 -241 26 -40 56 -87 66 -106 9 -19 21 -39 26 -45 5 -6 25 -31
44 -56 19 -25 63 -80 96 -123 86 -111 261 -289 333 -339 34 -23 88 -65 121
-92 58 -49 132 -100 261 -182 222 -141 454 -242 709 -309 163 -43 169 -45 205
-50 19 -3 49 -7 65 -10 50 -8 96 -13 206 -26 136 -15 526 -6 669 15 95 14 142
24 348 72 34 8 90 25 125 38 34 13 91 34 127 46 36 12 126 52 200 87 74 36
151 72 170 80 44 19 178 110 335 227 186 138 445 403 445 455 0 5 -25 3 -57
-6 -70 -18 -126 -12 -191 21 -50 25 -269 205 -802 660 -321 274 -358 309 -386
360 -24 43 -34 150 -22 216 l10 55 -48 43 c-57 50 -79 58 -103 40 -10 -7 -55
-41 -101 -76 -100 -76 -235 -143 -347 -173 -97 -26 -89 -7 -103 -239 -5 -91
-12 -173 -16 -183 -8 -23 -64 -20 -64 4 0 41 -21 336 -25 357 -5 19 -12 22
-58 22 -131 0 -326 49 -457 115 l-69 35 -60 -53 c-32 -28 -101 -90 -152 -136
-51 -47 -95 -79 -97 -73 -2 7 -8 10 -13 6 -5 -3 -9 0 -9 5 0 6 -7 11 -16 11
-21 0 10 42 144 195 l102 117 -83 88 c-87 91 -153 184 -205 285 -33 67 -82
214 -82 249 0 34 -19 46 -78 46 l-54 0 23 20 c13 10 20 19 16 20 -18 0 21 28
44 32 23 3 24 6 31 126 4 80 16 159 33 227 22 85 25 108 15 120 -7 8 -77 60
-156 116 -112 77 -144 105 -144 122 1 53 13 53 126 -9 186 -99 223 -117 238
-111 8 3 34 34 57 69 64 94 203 233 294 293 99 66 199 109 323 141 51 13 97
26 102 29 4 2 11 44 14 92 4 49 9 111 12 140 l6 52 28 -14 c31 -16 35 -30 45
-140 3 -38 8 -84 11 -101 l6 -31 120 -12 c243 -23 448 -124 637 -312 l81 -81
42 33 c22 18 82 69 132 112 98 85 154 128 142 109 -4 -7 -4 -12 1 -12 4 0 8
-12 8 -27 0 -20 -28 -58 -110 -150 -60 -69 -119 -135 -129 -148 l-20 -25 42
-102 c71 -176 84 -235 89 -409 l5 -156 82 -7 c44 -3 136 -9 204 -12 67 -4 125
-11 128 -16 3 -5 1 -15 -6 -22 -8 -11 -8 -15 2 -19 24 -8 -55 -17 -241 -27
-101 -5 -187 -13 -191 -17 -4 -4 -15 -33 -25 -63 -10 -30 -35 -90 -57 -134
l-39 -78 23 -25 c12 -13 38 -33 56 -45 l33 -20 58 26 c69 31 164 35 212 11 28
-15 162 -130 564 -484 223 -197 357 -313 520 -452 120 -103 159 -159 171 -250
4 -27 9 -49 11 -49 36 0 204 337 282 565 90 267 142 678 121 975 -12 187 -18
237 -36 340 -30 169 -81 356 -132 485 -61 152 -201 423 -224 433 -5 2 -8 8 -8
13 0 10 -55 103 -84 141 -12 15 -37 48 -56 74 -19 25 -44 56 -56 68 -11 11
-40 46 -65 76 -107 133 -318 333 -414 390 -37 22 -106 72 -147 105 -9 7 -27
19 -40 26 -13 6 -52 31 -88 53 -214 136 -604 286 -890 342 -244 48 -589 66
-844 43z"/>
<path d="M3285 4700 c3 -5 17 -10 31 -10 14 0 22 4 19 10 -3 6 -17 10 -31 10
-14 0 -22 -4 -19 -10z"/>
<path d="M3363 4694 c-14 -14 152 -28 176 -14 13 8 11 9 -9 9 -14 -1 -55 3
-91 8 -47 6 -69 6 -76 -3z"/>
<path d="M3620 4610 c0 -5 5 -10 11 -10 5 0 7 5 4 10 -3 6 -8 10 -11 10 -2 0
-4 -4 -4 -10z"/>
<path d="M2833 4601 c-12 -9 -34 -61 -25 -61 4 0 18 9 32 20 14 11 31 20 38
20 10 0 10 3 0 13 -13 14 -32 18 -45 8z"/>
<path d="M3165 4574 c-11 -2 -51 -12 -90 -20 -78 -18 -205 -78 -277 -131 -80
-58 -194 -189 -237 -272 -66 -127 -86 -214 -85 -366 1 -152 22 -244 83 -370
101 -210 283 -361 516 -426 109 -31 295 -31 406 -1 217 59 409 219 514 427 67
133 80 193 80 365 -1 136 -3 151 -32 235 -38 111 -85 191 -169 289 -100 117
-245 209 -399 250 -58 16 -270 30 -310 20z"/>
<path d="M3700 4570 c0 -5 5 -10 11 -10 5 0 7 5 4 10 -3 6 -8 10 -11 10 -2 0
-4 -4 -4 -10z"/>
<path d="M6711 3844 c0 -11 3 -14 6 -6 3 7 2 16 -1 19 -3 4 -6 -2 -5 -13z"/>
<path d="M6722 3785 c0 -16 2 -22 5 -12 2 9 2 23 0 30 -3 6 -5 -1 -5 -18z"/>
<path d="M85 3740 c-4 -23 -5 -43 -2 -46 2 -3 7 14 11 37 4 23 5 44 2 46 -2 2
-7 -14 -11 -37z"/>
<path d="M65 3565 c-4 -36 -5 -68 -2 -71 2 -3 8 25 12 61 4 37 5 69 2 72 -3 2
-8 -25 -12 -62z"/>
<path d="M2384 3500 c4 -14 8 -35 10 -47 2 -13 9 -29 16 -38 7 -8 9 -15 6 -15
-4 0 -1 -12 8 -27 8 -16 21 -45 30 -65 16 -37 23 -46 106 -141 94 -108 153
-167 181 -179 16 -7 29 -16 29 -20 0 -5 3 -7 8 -7 21 4 32 -2 27 -13 -4 -7 1
-4 9 6 14 18 14 21 -1 38 -9 10 -21 18 -27 18 -6 0 0 -9 14 -20 14 -11 21 -20
16 -20 -13 0 -71 52 -68 62 1 5 -2 7 -7 3 -14 -8 -75 34 -97 67 -10 15 -28 32
-39 38 -22 12 -81 90 -77 103 1 4 -3 7 -8 7 -5 0 -10 5 -10 12 0 6 -10 22 -22
35 -12 13 -16 23 -10 23 7 0 12 5 12 11 0 5 -4 7 -10 4 -5 -3 -7 0 -5 7 3 8
-2 22 -11 33 -8 11 -13 14 -9 8 4 -9 1 -11 -10 -7 -12 5 -13 10 -6 17 15 15
14 30 -1 21 -8 -5 -7 0 2 11 9 11 10 16 3 11 -12 -7 -18 5 -14 27 1 5 -3 6 -9
2 -5 -3 -10 0 -10 7 0 7 -8 22 -17 33 -15 19 -15 19 -9 -5z"/>
<path d="M56 3408 c-10 -38 -7 -196 4 -203 6 -4 10 35 10 109 0 64 -2 116 -4
116 -2 0 -6 -10 -10 -22z"/>
<path d="M2540 3230 c0 -5 5 -10 11 -10 5 0 7 5 4 10 -3 6 -8 10 -11 10 -2 0
-4 -4 -4 -10z"/>
<path d="M3980 3180 c-6 -11 -8 -20 -6 -20 3 0 10 9 16 20 6 11 8 20 6 20 -3
0 -10 -9 -16 -20z"/>
<path d="M60 3098 c0 -74 11 -148 21 -148 11 0 -1 182 -12 195 -5 5 -9 -14 -9
-47z"/>
<path d="M3930 3123 c0 -13 -3 -15 -8 -5 -6 9 -12 5 -23 -15 -18 -36 -35 -54
-43 -46 -3 4 -6 1 -6 -5 0 -20 15 -13 53 25 32 31 48 63 32 63 -3 0 -5 -8 -5
-17z"/>
<path d="M4349 3061 c-40 -27 -100 -93 -111 -120 -5 -14 -6 -37 -3 -51 6 -22
96 -117 153 -160 18 -14 53 -46 215 -192 29 -26 57 -48 64 -48 7 0 24 -16 39
-35 14 -19 33 -35 41 -35 8 0 11 -4 8 -10 -3 -5 -2 -10 2 -10 9 0 27 -13 95
-67 22 -18 44 -33 49 -33 5 0 9 -6 9 -13 0 -19 106 -114 150 -134 8 -4 34 -25
57 -47 47 -43 97 -76 124 -81 26 -5 33 45 26 172 -4 75 -12 116 -26 146 -21
43 -91 112 -271 265 -58 49 -125 109 -149 132 -24 23 -60 53 -80 68 -20 15
-40 32 -46 38 -46 50 -193 178 -230 200 -57 33 -85 37 -116 15z"/>
<path d="M3756 2974 c-6 -15 -4 -15 11 -3 10 7 20 15 22 16 2 2 -3 3 -11 3 -9
0 -19 -7 -22 -16z"/>
<path d="M2845 2940 c3 -5 8 -10 11 -10 2 0 4 5 4 10 0 6 -5 10 -11 10 -5 0
-7 -4 -4 -10z"/>
<path d="M80 2888 c0 -43 42 -248 51 -248 5 0 9 9 9 21 0 41 -43 249 -51 249
-5 0 -9 -10 -9 -22z"/>
<path d="M2940 2891 c0 -8 41 -23 47 -17 2 1 -8 8 -22 14 -14 6 -25 8 -25 3z"/>
<path d="M3486 2873 c-4 -5 -13 -8 -18 -8 -6 0 -13 -6 -15 -12 -3 -7 -1 -13 4
-13 13 1 47 29 41 35 -2 3 -8 2 -12 -2z"/>
<path d="M3249 2839 l-34 -19 81 2 c64 1 79 4 70 14 -22 21 -80 23 -117 3z
m38 -5 c-3 -3 -12 -4 -19 -1 -8 3 -5 6 6 6 11 1 17 -2 13 -5z"/>
<path d="M3370 2848 c0 -5 16 -8 35 -8 19 0 35 3 35 8 0 4 -16 7 -35 7 -19 0
-35 -3 -35 -7z"/>
<path d="M4180 2754 c0 -14 -4 -23 -9 -20 -13 8 4 -60 22 -88 9 -12 50 -52 93
-87 216 -180 333 -280 396 -341 21 -21 43 -38 48 -38 6 0 10 -4 10 -10 0 -5 5
-10 11 -10 16 0 140 -100 135 -109 -5 -8 30 -42 36 -35 3 2 60 -43 128 -101
117 -99 195 -155 219 -155 12 0 14 51 5 87 -3 12 -60 66 -126 120 -145 118
-223 183 -490 413 -295 254 -467 400 -473 400 -3 0 -5 -12 -5 -26z"/>
<path d="M144 2558 c14 -79 51 -188 62 -188 9 0 8 18 -7 68 -11 37 -24 86 -30
110 -13 49 -35 58 -25 10z"/>
<path d="M220 2299 c0 -27 83 -219 95 -219 9 0 -1 36 -33 115 -40 102 -62 138
-62 104z"/>
<path d="M330 2024 c0 -16 82 -174 90 -174 6 0 10 2 10 4 0 14 -84 176 -91
176 -5 0 -9 -3 -9 -6z"/>
<path d="M440 1802 c0 -29 266 -419 278 -407 3 3 -10 27 -28 53 -94 132 -155
224 -192 290 -35 63 -58 89 -58 64z"/>
<path d="M760 1334 c0 -18 259 -298 267 -290 5 4 -255 296 -263 296 -2 0 -4
-3 -4 -6z"/>
<path d="M1125 950 c21 -22 41 -40 44 -40 3 0 -13 18 -34 40 -21 22 -41 40
-44 40 -3 0 13 -18 34 -40z"/>
<path d="M1195 890 c10 -11 20 -20 23 -20 3 0 -3 9 -13 20 -10 11 -20 20 -23
20 -3 0 3 -9 13 -20z"/>
</g>
</svg>
